Rubik-Black.ufo
<glyph name="T" format="2">
  <advance width="674"/>
  <unicode hex="0054"/>
  <guideline y="495"/>
  <outline>
    <contour>
      <point x="237" y="0" type="curve" smooth="yes"/>
      <point x="437" y="0" type="line" smooth="yes"/>
      <point x="452" y="0"/>
      <point x="464" y="12"/>
      <point x="464" y="27" type="curve" smooth="yes"/>
      <point x="464" y="485" type="line"/>
      <point x="630" y="485" type="line" smooth="yes"/>
      <point x="645" y="485"/>
      <point x="657" y="497"/>
      <point x="657" y="512" type="curve" smooth="yes"/>
      <point x="657" y="673" type="line" smooth="yes"/>
      <point x="657" y="688"/>
      <point x="645" y="700"/>
      <point x="630" y="700" type="curve" smooth="yes"/>
      <point x="44" y="700" type="line" smooth="yes"/>
      <point x="29" y="700"/>
      <point x="17" y="688"/>
      <point x="17" y="673" type="curve" smooth="yes"/>
      <point x="17" y="512" type="line" smooth="yes"/>
      <point x="17" y="497"/>
      <point x="29" y="485"/>
      <point x="44" y="485" type="curve" smooth="yes"/>
      <point x="210" y="485" type="line"/>
      <point x="210" y="27" type="line" smooth="yes"/>
      <point x="210" y="12"/>
      <point x="222" y="0"/>
    </contour>
  </outline>
</glyph>
<glyph name="underscore" format="2">
  <advance width="725"/>
  <unicode hex="005F"/>
  <outline>
    <contour>
      <point x="60" y="-98" type="curve" smooth="yes"/>
      <point x="665" y="-98" type="line" smooth="yes"/>
      <point x="680" y="-98"/>
      <point x="692" y="-86"/>
      <point x="692" y="-71" type="curve" smooth="yes"/>
      <point x="692" y="71" type="line" smooth="yes"/>
      <point x="692" y="86"/>
      <point x="680" y="98"/>
      <point x="665" y="98" type="curve" smooth="yes"/>
      <point x="60" y="98" type="line" smooth="yes"/>
      <point x="45" y="98"/>
      <point x="33" y="86"/>
      <point x="33" y="71" type="curve" smooth="yes"/>
      <point x="33" y="-71" type="line" smooth="yes"/>
      <point x="33" y="-86"/>
      <point x="45" y="-98"/>
    </contour>
  </outline>
</glyph>
<glyph name="a" format="2">
  <advance width="622"/>
  <unicode hex="0061"/>
  <guideline y="530" identifier="nYoDd8hafv"/>
  <guideline y="335" identifier="M5MnqxrQ80"/>
  <guideline y="390" identifier="pLbYoIavjj"/>
  <guideline y="-10" identifier="ctqy88HnjK"/>
  <guideline y="55" identifier="Mbc1qXp9Hh"/>
  <outline>
    <contour>
      <point x="211" y="-10" type="curve" smooth="yes"/>
      <point x="273" y="-10"/>
      <point x="324" y="15"/>
      <point x="353" y="55" type="curve"/>
      <point x="353" y="27" type="line" smooth="yes"/>
      <point x="353" y="12"/>
      <point x="365" y="0"/>
      <point x="380" y="0" type="curve" smooth="yes"/>
      <point x="555" y="0" type="line" smooth="yes"/>
      <point x="570" y="0"/>
      <point x="582" y="12"/>
      <point x="582" y="27" type="curve" smooth="yes"/>
      <point x="582" y="314" type="line" smooth="yes"/>
      <point x="582" y="451"/>
      <point x="495" y="530"/>
      <point x="314" y="530" type="curve" smooth="yes"/>
      <point x="127" y="530"/>
      <point x="54" y="431"/>
      <point x="51" y="380" type="curve" smooth="yes"/>
      <point x="50" y="367"/>
      <point x="60" y="358"/>
      <point x="73" y="358" type="curve"/>
      <point x="243" y="358" type="line"/>
      <point x="255" y="358"/>
      <point x="264" y="362"/>
      <point x="271" y="369" type="curve" smooth="yes"/>
      <point x="284" y="382"/>
      <point x="293" y="390"/>
      <point x="312" y="390" type="curve" smooth="yes"/>
      <point x="340" y="390"/>
      <point x="342" y="375"/>
      <point x="342" y="340" type="curve"/>
      <point x="342" y="339" type="line"/>
      <point x="236" y="322" type="line"/>
      <point x="103" y="299"/>
      <point x="17" y="246"/>
      <point x="17" y="149" type="curve" smooth="yes"/>
      <point x="17" y="59"/>
      <point x="96" y="-10"/>
    </contour>
    <contour>
      <point x="280" y="138" type="curve" smooth="yes"/>
      <point x="255" y="138"/>
      <point x="242" y="151"/>
      <point x="242" y="166" type="curve" smooth="yes"/>
      <point x="242" y="180"/>
      <point x="251" y="195"/>
      <point x="286" y="203" type="curve" smooth="yes"/>
      <point x="345" y="216" type="line"/>
      <point x="345" y="215" type="line"/>
      <point x="345" y="162"/>
      <point x="319" y="138"/>
    </contour>
  </outline>
</glyph>
<glyph name="o" format="2">
  <advance width="642"/>
  <unicode hex="006F"/>
  <guideline y="302"/>
  <guideline y="218"/>
  <outline>
    <contour>
      <point x="321" y="-10" type="curve" smooth="yes"/>
      <point x="505" y="-10"/>
      <point x="601" y="66"/>
      <point x="611" y="213" type="curve" smooth="yes"/>
      <point x="613" y="243"/>
      <point x="613" y="277"/>
      <point x="611" y="307" type="curve" smooth="yes"/>
      <point x="601" y="454"/>
      <point x="494" y="530"/>
      <point x="321" y="530" type="curve" smooth="yes"/>
      <point x="148" y="530"/>
      <point x="41" y="454"/>
      <point x="31" y="307" type="curve" smooth="yes"/>
      <point x="29" y="277"/>
      <point x="29" y="243"/>
      <point x="31" y="213" type="curve" smooth="yes"/>
      <point x="41" y="66"/>
      <point x="137" y="-10"/>
    </contour>
    <contour>
      <point x="321" y="150" type="curve" smooth="yes"/>
      <point x="283" y="150"/>
      <point x="279" y="171"/>
      <point x="276" y="218" type="curve" smooth="yes"/>
      <point x="275" y="238"/>
      <point x="275" y="282"/>
      <point x="276" y="302" type="curve" smooth="yes"/>
      <point x="279" y="346"/>
      <point x="283" y="370"/>
      <point x="321" y="370" type="curve" smooth="yes"/>
      <point x="359" y="370"/>
      <point x="363" y="346"/>
      <point x="366" y="302" type="curve" smooth="yes"/>
      <point x="367" y="282"/>
      <point x="367" y="238"/>
      <point x="366" y="218" type="curve" smooth="yes"/>
      <point x="363" y="171"/>
      <point x="359" y="150"/>
    </contour>
  </outline>
</glyph>
<glyph name="exclamdown" format="2">
  <advance width="324"/>
  <unicode hex="00A1"/>
  <outline>
    <contour>
      <point x="250" y="249" type="curve" smooth="yes"/>
      <point x="76" y="249" type="line" smooth="yes"/>
      <point x="61" y="249"/>
      <point x="49" y="237"/>
      <point x="49" y="222" type="curve" smooth="yes"/>
      <point x="49" y="-156" type="line" smooth="yes"/>
      <point x="49" y="-171"/>
      <point x="61" y="-183"/>
      <point x="76" y="-183" type="curve" smooth="yes"/>
      <point x="250" y="-183" type="line" smooth="yes"/>
      <point x="265" y="-183"/>
      <point x="277" y="-171"/>
      <point x="277" y="-156" type="curve" smooth="yes"/>
      <point x="277" y="222" type="line" smooth="yes"/>
      <point x="277" y="237"/>
      <point x="265" y="249"/>
    </contour>
    <contour>
      <point x="250" y="517" type="curve" smooth="yes"/>
      <point x="76" y="517" type="line" smooth="yes"/>
      <point x="61" y="517"/>
      <point x="49" y="505"/>
      <point x="49" y="490" type="curve" smooth="yes"/>
      <point x="49" y="316" type="line" smooth="yes"/>
      <point x="49" y="301"/>
      <point x="61" y="289"/>
      <point x="76" y="289" type="curve" smooth="yes"/>
      <point x="250" y="289" type="line" smooth="yes"/>
      <point x="265" y="289"/>
      <point x="277" y="301"/>
      <point x="277" y="316" type="curve" smooth="yes"/>
      <point x="277" y="490" type="line" smooth="yes"/>
      <point x="277" y="505"/>
      <point x="265" y="517"/>
    </contour>
  </outline>
</glyph>
<glyph name="logicalnot" format="2">
  <advance width="564"/>
  <unicode hex="00AC"/>
  <guideline y="350"/>
  <guideline x="484"/>
  <outline>
    <contour>
      <point x="368" y="53" type="curve" smooth="yes"/>
      <point x="484" y="53" type="line" smooth="yes"/>
      <point x="499" y="53"/>
      <point x="511" y="65"/>
      <point x="511" y="80" type="curve" smooth="yes"/>
      <point x="511" y="323" type="line" smooth="yes"/>
      <point x="511" y="338"/>
      <point x="499" y="350"/>
      <point x="484" y="350" type="curve" smooth="yes"/>
      <point x="69" y="350" type="line" smooth="yes"/>
      <point x="54" y="350"/>
      <point x="42" y="338"/>
      <point x="42" y="323" type="curve" smooth="yes"/>
      <point x="42" y="207" type="line" smooth="yes"/>
      <point x="42" y="192"/>
      <point x="54" y="180"/>
      <point x="69" y="180" type="curve" smooth="yes"/>
      <point x="341" y="180" type="line"/>
      <point x="341" y="80" type="line" smooth="yes"/>
      <point x="341" y="65"/>
      <point x="353" y="53"/>
    </contour>
  </outline>
</glyph>
<glyph name="macron" format="2">
  <advance width="473"/>
  <unicode hex="00AF"/>
  <guideline y="595"/>
  <outline>
    <contour>
      <point x="73" y="595" type="curve" smooth="yes"/>
      <point x="400" y="595" type="line" smooth="yes"/>
      <point x="413" y="595"/>
      <point x="423" y="605"/>
      <point x="423" y="618" type="curve" smooth="yes"/>
      <point x="423" y="722" type="line" smooth="yes"/>
      <point x="423" y="735"/>
      <point x="413" y="745"/>
      <point x="400" y="745" type="curve" smooth="yes"/>
      <point x="73" y="745" type="line" smooth="yes"/>
      <point x="60" y="745"/>
      <point x="50" y="735"/>
      <point x="50" y="722" type="curve" smooth="yes"/>
      <point x="50" y="618" type="line" smooth="yes"/>
      <point x="50" y="605"/>
      <point x="60" y="595"/>
    </contour>
  </outline>
</glyph>
<glyph name="questiondown" format="2">
  <advance width="649"/>
  <unicode hex="00BF"/>
  <outline>
    <contour>
      <point x="424" y="265" type="curve" smooth="yes"/>
      <point x="210" y="265" type="line" smooth="yes"/>
      <point x="193" y="265"/>
      <point x="188" y="256"/>
      <point x="174" y="236" type="curve" smooth="yes"/>
      <point x="171" y="231"/>
      <point x="167" y="227"/>
      <point x="163" y="222" type="curve" smooth="yes"/>
      <point x="113" y="161"/>
      <point x="22" y="102"/>
      <point x="22" y="-5" type="curve" smooth="yes"/>
      <point x="22" y="-69"/>
      <point x="72" y="-192"/>
      <point x="303" y="-192" type="curve" smooth="yes"/>
      <point x="525" y="-192"/>
      <point x="623" y="-67"/>
      <point x="626" y="34" type="curve" smooth="yes"/>
      <point x="626" y="53"/>
      <point x="615" y="65"/>
      <point x="601" y="65" type="curve" smooth="yes"/>
      <point x="415" y="65" type="line" smooth="yes"/>
      <point x="393" y="65"/>
      <point x="386" y="53"/>
      <point x="379" y="40" type="curve" smooth="yes"/>
      <point x="370" y="23"/>
      <point x="361" y="3"/>
      <point x="321" y="3" type="curve" smooth="yes"/>
      <point x="301" y="3"/>
      <point x="287" y="15"/>
      <point x="287" y="35" type="curve" smooth="yes"/>
      <point x="287" y="83"/>
      <point x="413" y="146"/>
      <point x="442" y="239" type="curve" smooth="yes"/>
      <point x="443" y="242"/>
      <point x="443" y="244"/>
      <point x="443" y="247" type="curve" smooth="yes"/>
      <point x="443" y="256"/>
      <point x="434" y="265"/>
    </contour>
    <contour>
      <point x="414" y="518" type="curve" smooth="yes"/>
      <point x="231" y="518" type="line" smooth="yes"/>
      <point x="216" y="518"/>
      <point x="204" y="506"/>
      <point x="204" y="491" type="curve" smooth="yes"/>
      <point x="204" y="332" type="line" smooth="yes"/>
      <point x="204" y="317"/>
      <point x="216" y="305"/>
      <point x="231" y="305" type="curve" smooth="yes"/>
      <point x="414" y="305" type="line"/>
      <point x="429" y="305"/>
      <point x="441" y="317"/>
      <point x="441" y="332" type="curve" smooth="yes"/>
      <point x="441" y="491" type="line" smooth="yes"/>
      <point x="441" y="506"/>
      <point x="429" y="518"/>
    </contour>
  </outline>
</glyph>
<glyph name="AE" format="2">
  <advance width="1005"/>
  <unicode hex="00C6"/>
  <guideline y="505"/>
  <anchor x="503" y="0" name="bottom"/>
  <anchor x="503" y="700" name="top"/>
  <outline>
    <contour>
      <point x="26" y="0" type="curve" smooth="yes"/>
      <point x="211" y="0" type="line" smooth="yes"/>
      <point x="237" y="0"/>
      <point x="246" y="14"/>
      <point x="250" y="25" type="curve" smooth="yes"/>
      <point x="258" y="47"/>
      <point x="266" y="69"/>
      <point x="274" y="91" type="curve"/>
      <point x="423" y="91" type="line"/>
      <point x="423" y="27" type="line" smooth="yes"/>
      <point x="423" y="12"/>
      <point x="435" y="0"/>
      <point x="450" y="0" type="curve" smooth="yes"/>
      <point x="941" y="0" type="line" smooth="yes"/>
      <point x="956" y="0"/>
      <point x="968" y="12"/>
      <point x="968" y="27" type="curve" smooth="yes"/>
      <point x="968" y="168" type="line" smooth="yes"/>
      <point x="968" y="183"/>
      <point x="956" y="195"/>
      <point x="941" y="195" type="curve" smooth="yes"/>
      <point x="663" y="195" type="line"/>
      <point x="663" y="258" type="line"/>
      <point x="911" y="258" type="line" smooth="yes"/>
      <point x="926" y="258"/>
      <point x="938" y="270"/>
      <point x="938" y="285" type="curve" smooth="yes"/>
      <point x="938" y="415" type="line" smooth="yes"/>
      <point x="938" y="430"/>
      <point x="926" y="442"/>
      <point x="911" y="442" type="curve" smooth="yes"/>
      <point x="663" y="442" type="line"/>
      <point x="663" y="505" type="line"/>
      <point x="933" y="505" type="line" smooth="yes"/>
      <point x="948" y="505"/>
      <point x="960" y="517"/>
      <point x="960" y="532" type="curve" smooth="yes"/>
      <point x="960" y="673" type="line" smooth="yes"/>
      <point x="960" y="688"/>
      <point x="948" y="700"/>
      <point x="933" y="700" type="curve" smooth="yes"/>
      <point x="273" y="700" type="line" smooth="yes"/>
      <point x="246" y="700"/>
      <point x="232" y="682"/>
      <point x="228" y="667" type="curve"/>
      <point x="154" y="454"/>
      <point x="79" y="242"/>
      <point x="5" y="29" type="curve" smooth="yes"/>
      <point x="4" y="26"/>
      <point x="4" y="24"/>
      <point x="4" y="22" type="curve" smooth="yes"/>
      <point x="4" y="10"/>
      <point x="14" y="0"/>
    </contour>
    <contour>
      <point x="325" y="286" type="line"/>
      <point x="391" y="505" type="line"/>
      <point x="423" y="505" type="line"/>
      <point x="423" y="286" type="line"/>
    </contour>
  </outline>
</glyph>
<glyph name="germandbls" format="2">
  <advance width="682"/>
  <unicode hex="00DF"/>
  <guideline y="541"/>
  <outline>
    <contour>
      <point x="72" y="0" type="curve" smooth="yes"/>
      <point x="250" y="0" type="line" smooth="yes"/>
      <point x="265" y="0"/>
      <point x="277" y="12"/>
      <point x="277" y="27" type="curve"/>
      <point x="277" y="459" type="line" smooth="yes"/>
      <point x="277" y="518"/>
      <point x="301" y="541"/>
      <point x="340" y="541" type="curve"/>
      <point x="379" y="541"/>
      <point x="403" y="518"/>
      <point x="403" y="489" type="curve" smooth="yes"/>
      <point x="403" y="460"/>
      <point x="376" y="439"/>
      <point x="339" y="438" type="curve"/>
      <point x="336" y="438" type="line"/>
      <point x="311" y="438"/>
      <point x="307" y="426"/>
      <point x="307" y="411" type="curve" smooth="yes"/>
      <point x="307" y="313" type="line" smooth="yes"/>
      <point x="307" y="298"/>
      <point x="315" y="286"/>
      <point x="336" y="286" type="curve"/>
      <point x="338" y="286" type="line"/>
      <point x="384" y="286"/>
      <point x="409" y="262"/>
      <point x="409" y="227" type="curve" smooth="yes"/>
      <point x="409" y="191"/>
      <point x="380" y="168"/>
      <point x="342" y="168" type="curve"/>
      <point x="340" y="168" type="line"/>
      <point x="319" y="169"/>
      <point x="307" y="156"/>
      <point x="307" y="141" type="curve" smooth="yes"/>
      <point x="307" y="27" type="line" smooth="yes"/>
      <point x="307" y="12"/>
      <point x="319" y="0"/>
      <point x="340" y="0" type="curve"/>
      <point x="375" y="0" type="line"/>
      <point x="569" y="0"/>
      <point x="655" y="113"/>
      <point x="655" y="216" type="curve" smooth="yes"/>
      <point x="655" y="303"/>
      <point x="620" y="348"/>
      <point x="566" y="375" type="curve"/>
      <point x="607" y="407"/>
      <point x="625" y="447"/>
      <point x="625" y="502" type="curve" smooth="yes"/>
      <point x="625" y="608"/>
      <point x="546" y="709"/>
      <point x="340" y="710" type="curve"/>
      <point x="134" y="709"/>
      <point x="45" y="598"/>
      <point x="45" y="452" type="curve" smooth="yes"/>
      <point x="45" y="27" type="line" smooth="yes"/>
      <point x="45" y="12"/>
      <point x="57" y="0"/>
    </contour>
  </outline>
</glyph>
<glyph name="Eng" format="2">
  <advance width="740"/>
  <unicode hex="014A"/>
  <guideline y="26"/>
  <outline>
    <contour>
      <point x="343" y="-225" type="curve" smooth="yes"/>
      <point x="359" y="-225" type="line" smooth="yes"/>
      <point x="541" y="-225"/>
      <point x="685" y="-145"/>
      <point x="685" y="26" type="curve" smooth="yes"/>
      <point x="685" y="673" type="line" smooth="yes"/>
      <point x="685" y="688"/>
      <point x="673" y="700"/>
      <point x="658" y="700" type="curve" smooth="yes"/>
      <point x="477" y="700" type="line" smooth="yes"/>
      <point x="462" y="700"/>
      <point x="450" y="688"/>
      <point x="450" y="673" type="curve" smooth="yes"/>
      <point x="450" y="400" type="line"/>
      <point x="281" y="677" type="line" smooth="yes"/>
      <point x="277" y="684"/>
      <point x="267" y="700"/>
      <point x="240" y="700" type="curve" smooth="yes"/>
      <point x="82" y="700" type="line" smooth="yes"/>
      <point x="67" y="700"/>
      <point x="55" y="688"/>
      <point x="55" y="673" type="curve" smooth="yes"/>
      <point x="55" y="27" type="line" smooth="yes"/>
      <point x="55" y="12"/>
      <point x="67" y="0"/>
      <point x="82" y="0" type="curve" smooth="yes"/>
      <point x="263" y="0" type="line" smooth="yes"/>
      <point x="278" y="0"/>
      <point x="290" y="12"/>
      <point x="290" y="27" type="curve" smooth="yes"/>
      <point x="290" y="278" type="line"/>
      <point x="450" y="38" type="line"/>
      <point x="450" y="36" type="line"/>
      <point x="450" y="2"/>
      <point x="426" y="-22"/>
      <point x="383" y="-22" type="curve" smooth="yes"/>
      <point x="343" y="-22" type="line" smooth="yes"/>
      <point x="328" y="-22"/>
      <point x="316" y="-34"/>
      <point x="316" y="-49" type="curve"/>
      <point x="316" y="-198" type="line" smooth="yes"/>
      <point x="316" y="-213"/>
      <point x="328" y="-225"/>
    </contour>
  </outline>
</glyph>
<glyph name="circumflex" format="2">
  <advance width="528"/>
  <unicode hex="02C6"/>
  <guideline y="720" identifier="8kw7o10zT1"/>
  <guideline y="595" identifier="n808dsZj1P"/>
  <guideline x="264" identifier="yvaGVmueO4"/>
  <outline>
    <contour>
      <point x="66" y="595" type="curve" smooth="yes"/>
      <point x="132" y="595" type="line" smooth="yes"/>
      <point x="145" y="595"/>
      <point x="158" y="595"/>
      <point x="172" y="602" type="curve" smooth="yes"/>
      <point x="264" y="644" type="line"/>
      <point x="356" y="602" type="line" smooth="yes"/>
      <point x="370" y="595"/>
      <point x="383" y="595"/>
      <point x="396" y="595" type="curve" smooth="yes"/>
      <point x="462" y="595" type="line" smooth="yes"/>
      <point x="472" y="595"/>
      <point x="478" y="601"/>
      <point x="478" y="611" type="curve" smooth="yes"/>
      <point x="478" y="616"/>
      <point x="476" y="621"/>
      <point x="473" y="624" type="curve" smooth="yes"/>
      <point x="361" y="746" type="line" smooth="yes"/>
      <point x="348" y="760"/>
      <point x="339" y="765"/>
      <point x="324" y="765" type="curve" smooth="yes"/>
      <point x="204" y="765" type="line" smooth="yes"/>
      <point x="189" y="765"/>
      <point x="180" y="760"/>
      <point x="167" y="746" type="curve" smooth="yes"/>
      <point x="55" y="624" type="line" smooth="yes"/>
      <point x="52" y="621"/>
      <point x="50" y="616"/>
      <point x="50" y="611" type="curve" smooth="yes"/>
      <point x="50" y="601"/>
      <point x="56" y="595"/>
    </contour>
  </outline>
</glyph>
<glyph name="Tse-cy" format="2">
  <advance width="819"/>
  <unicode hex="0426"/>
  <guideline y="-110"/>
  <outline>
    <contour>
      <point x="566" y="-140" type="curve" smooth="yes"/>
      <point x="762" y="-140" type="line" smooth="yes"/>
      <point x="777" y="-140"/>
      <point x="789" y="-128"/>
      <point x="789" y="-113" type="curve" smooth="yes"/>
      <point x="789" y="193" type="line" smooth="yes"/>
      <point x="789" y="208"/>
      <point x="777" y="220"/>
      <point x="762" y="220" type="curve" smooth="yes"/>
      <point x="717" y="220" type="line"/>
      <point x="717" y="673" type="line" smooth="yes"/>
      <point x="717" y="688"/>
      <point x="705" y="700"/>
      <point x="690" y="700" type="curve" smooth="yes"/>
      <point x="494" y="700" type="line" smooth="yes"/>
      <point x="479" y="700"/>
      <point x="467" y="688"/>
      <point x="467" y="673" type="curve" smooth="yes"/>
      <point x="467" y="220" type="line"/>
      <point x="305" y="220" type="line"/>
      <point x="305" y="673" type="line" smooth="yes"/>
      <point x="305" y="688"/>
      <point x="293" y="700"/>
      <point x="278" y="700" type="curve" smooth="yes"/>
      <point x="82" y="700" type="line" smooth="yes"/>
      <point x="67" y="700"/>
      <point x="55" y="689"/>
      <point x="55" y="673" type="curve" smooth="yes"/>
      <point x="55" y="27" type="line" smooth="yes"/>
      <point x="55" y="12"/>
      <point x="67" y="0"/>
      <point x="82" y="0" type="curve" smooth="yes"/>
      <point x="539" y="0" type="line"/>
      <point x="539" y="-113" type="line" smooth="yes"/>
      <point x="539" y="-128"/>
      <point x="551" y="-140"/>
    </contour>
  </outline>
</glyph>
<glyph name="Che-cy" format="2">
  <advance width="737"/>
  <unicode hex="0427"/>
  <guideline x="358"/>
  <anchor x="423" y="0" name="bottomright"/>
  <anchor x="349" y="290" name="center"/>
  <anchor x="349" y="700" name="top"/>
  <outline>
    <contour>
      <point x="450" y="0" type="curve" smooth="yes"/>
      <point x="646" y="0" type="line" smooth="yes"/>
      <point x="661" y="0"/>
      <point x="673" y="12"/>
      <point x="673" y="27" type="curve" smooth="yes"/>
      <point x="673" y="673" type="line" smooth="yes"/>
      <point x="673" y="688"/>
      <point x="661" y="700"/>
      <point x="646" y="700" type="curve" smooth="yes"/>
      <point x="450" y="700" type="line" smooth="yes"/>
      <point x="435" y="700"/>
      <point x="423" y="688"/>
      <point x="423" y="673" type="curve" smooth="yes"/>
      <point x="423" y="430" type="line" smooth="yes"/>
      <point x="423" y="416"/>
      <point x="385" y="404"/>
      <point x="355" y="404" type="curve" smooth="yes"/>
      <point x="308" y="404"/>
      <point x="288" y="424"/>
      <point x="288" y="471" type="curve" smooth="yes"/>
      <point x="288" y="673" type="line" smooth="yes"/>
      <point x="288" y="688"/>
      <point x="276" y="700"/>
      <point x="261" y="700" type="curve" smooth="yes"/>
      <point x="65" y="700" type="line" smooth="yes"/>
      <point x="50" y="700"/>
      <point x="38" y="688"/>
      <point x="38" y="673" type="curve" smooth="yes"/>
      <point x="38" y="461" type="line" smooth="yes"/>
      <point x="37" y="265"/>
      <point x="125" y="176"/>
      <point x="301" y="176" type="curve" smooth="yes"/>
      <point x="350" y="176"/>
      <point x="391" y="186"/>
      <point x="423" y="206" type="curve"/>
      <point x="423" y="27" type="line" smooth="yes"/>
      <point x="423" y="12"/>
      <point x="435" y="0"/>
    </contour>
  </outline>
</glyph>
<glyph name="Ereversed-cy" format="2">
  <advance width="733"/>
  <unicode hex="042D"/>
  <outline>
    <contour>
      <point x="360" y="-10" type="curve" smooth="yes"/>
      <point x="561" y="-10"/>
      <point x="687" y="77"/>
      <point x="695" y="261" type="curve" smooth="yes"/>
      <point x="697" y="336"/>
      <point x="697" y="364"/>
      <point x="695" y="439" type="curve" smooth="yes"/>
      <point x="687" y="618"/>
      <point x="556" y="710"/>
      <point x="360" y="710" type="curve" smooth="yes"/>
      <point x="196" y="710"/>
      <point x="57" y="649"/>
      <point x="40" y="501" type="curve" smooth="yes"/>
      <point x="39" y="489"/>
      <point x="50" y="479"/>
      <point x="62" y="479" type="curve" smooth="yes"/>
      <point x="260" y="479" type="line" smooth="yes"/>
      <point x="277" y="479"/>
      <point x="283" y="483"/>
      <point x="292" y="495" type="curve" smooth="yes"/>
      <point x="299" y="504"/>
      <point x="319" y="515"/>
      <point x="354" y="515" type="curve" smooth="yes"/>
      <point x="406" y="515"/>
      <point x="435" y="494"/>
      <point x="435" y="448" type="curve"/>
      <point x="435" y="438" type="line"/>
      <point x="282" y="438" type="line" smooth="yes"/>
      <point x="267" y="438"/>
      <point x="255" y="424"/>
      <point x="255" y="409" type="curve" smooth="yes"/>
      <point x="255" y="289" type="line" smooth="yes"/>
      <point x="255" y="274"/>
      <point x="267" y="260"/>
      <point x="282" y="260" type="curve" smooth="yes"/>
      <point x="435" y="260" type="line"/>
      <point x="435" y="250" type="line"/>
      <point x="435" y="205"/>
      <point x="405" y="183"/>
      <point x="354" y="183" type="curve" smooth="yes"/>
      <point x="319" y="183"/>
      <point x="300" y="190"/>
      <point x="287" y="203" type="curve" smooth="yes"/>
      <point x="276" y="214"/>
      <point x="269" y="219"/>
      <point x="253" y="219" type="curve" smooth="yes"/>
      <point x="57" y="219" type="line" smooth="yes"/>
      <point x="45" y="219"/>
      <point x="34" y="209"/>
      <point x="35" y="197" type="curve" smooth="yes"/>
      <point x="51" y="58"/>
      <point x="191" y="-10"/>
    </contour>
  </outline>
</glyph>
<glyph name="ze-cy" format="2">
  <advance width="598"/>
  <unicode hex="0437"/>
  <anchor x="307" y="0" name="bottom"/>
  <anchor x="307" y="520" name="top"/>
  <outline>
    <contour>
      <point x="295" y="-10" type="curve" smooth="yes"/>
      <point x="469" y="-10"/>
      <point x="564" y="59"/>
      <point x="564" y="149" type="curve" smooth="yes"/>
      <point x="564" y="196"/>
      <point x="546" y="252"/>
      <point x="485" y="273" type="curve"/>
      <point x="534" y="295"/>
      <point x="552" y="340"/>
      <point x="552" y="380" type="curve" smooth="yes"/>
      <point x="552" y="471"/>
      <point x="483" y="530"/>
      <point x="295" y="530" type="curve" smooth="yes"/>
      <point x="93" y="530"/>
      <point x="44" y="427"/>
      <point x="34" y="368" type="curve" smooth="yes"/>
      <point x="32" y="359"/>
      <point x="41" y="351"/>
      <point x="50" y="351" type="curve" smooth="yes"/>
      <point x="219" y="351" type="line" smooth="yes"/>
      <point x="236" y="351"/>
      <point x="240" y="358"/>
      <point x="247" y="363" type="curve" smooth="yes"/>
      <point x="258" y="372"/>
      <point x="267" y="376"/>
      <point x="293" y="376" type="curve" smooth="yes"/>
      <point x="318" y="376"/>
      <point x="329" y="366"/>
      <point x="329" y="350" type="curve" smooth="yes"/>
      <point x="329" y="334"/>
      <point x="322" y="324"/>
      <point x="292" y="324" type="curve" smooth="yes"/>
      <point x="235" y="324" type="line" smooth="yes"/>
      <point x="223" y="324"/>
      <point x="214" y="313"/>
      <point x="214" y="302" type="curve" smooth="yes"/>
      <point x="214" y="219" type="line" smooth="yes"/>
      <point x="214" y="208"/>
      <point x="223" y="197"/>
      <point x="235" y="197" type="curve" smooth="yes"/>
      <point x="292" y="197" type="line" smooth="yes"/>
      <point x="326" y="197"/>
      <point x="333" y="185"/>
      <point x="333" y="171" type="curve" smooth="yes"/>
      <point x="333" y="152"/>
      <point x="323" y="142"/>
      <point x="293" y="142" type="curve" smooth="yes"/>
      <point x="266" y="142"/>
      <point x="257" y="148"/>
      <point x="249" y="154" type="curve" smooth="yes"/>
      <point x="242" y="159"/>
      <point x="238" y="166"/>
      <point x="221" y="166" type="curve" smooth="yes"/>
      <point x="46" y="166" type="line" smooth="yes"/>
      <point x="38" y="166"/>
      <point x="27" y="158"/>
      <point x="30" y="149" type="curve" smooth="yes"/>
      <point x="40" y="90"/>
      <point x="86" y="-10"/>
    </contour>
  </outline>
</glyph>
<glyph name="ka-cy" format="2">
  <advance width="666"/>
  <unicode hex="043A"/>
  <guideline y="261"/>
  <anchor x="375" y="0" name="bottomright"/>
  <anchor x="272" y="260" name="center"/>
  <anchor x="331" y="520" name="top"/>
  <outline>
    <contour>
      <point x="72" y="0" type="curve" smooth="yes"/>
      <point x="247" y="0" type="line" smooth="yes"/>
      <point x="262" y="0"/>
      <point x="274" y="12"/>
      <point x="274" y="27" type="curve" smooth="yes"/>
      <point x="274" y="175" type="line"/>
      <point x="291" y="175" type="line"/>
      <point x="386" y="17" type="line" smooth="yes"/>
      <point x="392" y="8"/>
      <point x="401" y="0"/>
      <point x="417" y="0" type="curve" smooth="yes"/>
      <point x="627" y="0" type="line" smooth="yes"/>
      <point x="640" y="0"/>
      <point x="651" y="11"/>
      <point x="651" y="24" type="curve" smooth="yes"/>
      <point x="651" y="30"/>
      <point x="649" y="34"/>
      <point x="647" y="37" type="curve" smooth="yes"/>
      <point x="495" y="266" type="line"/>
      <point x="622" y="481" type="line" smooth="yes"/>
      <point x="624" y="484"/>
      <point x="627" y="490"/>
      <point x="627" y="496" type="curve" smooth="yes"/>
      <point x="627" y="509"/>
      <point x="616" y="520"/>
      <point x="603" y="520" type="curve" smooth="yes"/>
      <point x="411" y="520" type="line" smooth="yes"/>
      <point x="393" y="520"/>
      <point x="385" y="508"/>
      <point x="382" y="503" type="curve" smooth="yes"/>
      <point x="296" y="350" type="line"/>
      <point x="274" y="350" type="line"/>
      <point x="274" y="493" type="line" smooth="yes"/>
      <point x="274" y="508"/>
      <point x="262" y="520"/>
      <point x="247" y="520" type="curve" smooth="yes"/>
      <point x="72" y="520" type="line" smooth="yes"/>
      <point x="57" y="520"/>
      <point x="45" y="508"/>
      <point x="45" y="493" type="curve" smooth="yes"/>
      <point x="45" y="27" type="line" smooth="yes"/>
      <point x="45" y="12"/>
      <point x="57" y="0"/>
    </contour>
  </outline>
</glyph>
<glyph name="u-cy" format="2">
  <advance width="631"/>
  <unicode hex="0443"/>
  <anchor x="326" y="520" name="top"/>
  <outline>
    <contour>
      <point x="118" y="-191" type="curve" smooth="yes"/>
      <point x="177" y="-191" type="line" smooth="yes"/>
      <point x="308" y="-191"/>
      <point x="362" y="-135"/>
      <point x="430" y="24" type="curve" smooth="yes"/>
      <point x="620" y="489" type="line" smooth="yes"/>
      <point x="622" y="493"/>
      <point x="621" y="496"/>
      <point x="621" y="499" type="curve" smooth="yes"/>
      <point x="621" y="510"/>
      <point x="610" y="520"/>
      <point x="598" y="520" type="curve" smooth="yes"/>
      <point x="437" y="520" type="line" smooth="yes"/>
      <point x="417" y="520"/>
      <point x="407" y="508"/>
      <point x="403" y="496" type="curve" smooth="yes"/>
      <point x="218" y="33" type="line" smooth="yes"/>
      <point x="202" y="-4"/>
      <point x="190" y="-16"/>
      <point x="160" y="-16" type="curve" smooth="yes"/>
      <point x="118" y="-16" type="line"/>
      <point x="103" y="-16"/>
      <point x="91" y="-28"/>
      <point x="91" y="-43" type="curve" smooth="yes"/>
      <point x="91" y="-164" type="line" smooth="yes"/>
      <point x="91" y="-179"/>
      <point x="103" y="-191"/>
    </contour>
    <contour>
      <point x="218" y="7" type="line"/>
      <point x="360" y="156" type="line"/>
      <point x="236" y="496" type="line" smooth="yes"/>
      <point x="232" y="507"/>
      <point x="224" y="520"/>
      <point x="204" y="520" type="curve" smooth="yes"/>
      <point x="35" y="520" type="line" smooth="yes"/>
      <point x="22" y="520"/>
      <point x="12" y="509"/>
      <point x="10" y="496" type="curve" smooth="yes"/>
      <point x="10" y="494"/>
      <point x="10" y="492"/>
      <point x="11" y="489" type="curve" smooth="yes"/>
    </contour>
  </outline>
</glyph>
<glyph name="iu-cy" format="2">
  <advance width="937"/>
  <unicode hex="044E"/>
  <outline>
    <contour>
      <point x="466" y="175" type="line"/>
      <point x="466" y="350" type="line"/>
      <point x="278" y="350" type="line"/>
      <point x="278" y="493" type="line" smooth="yes"/>
      <point x="278" y="508"/>
      <point x="266" y="520"/>
      <point x="251" y="520" type="curve" smooth="yes"/>
      <point x="72" y="520" type="line" smooth="yes"/>
      <point x="57" y="520"/>
      <point x="45" y="508"/>
      <point x="45" y="493" type="curve" smooth="yes"/>
      <point x="45" y="27" type="line" smooth="yes"/>
      <point x="45" y="12"/>
      <point x="57" y="0"/>
      <point x="72" y="0" type="curve" smooth="yes"/>
      <point x="251" y="0" type="line" smooth="yes"/>
      <point x="266" y="0"/>
      <point x="278" y="12"/>
      <point x="278" y="27" type="curve" smooth="yes"/>
      <point x="278" y="175" type="line"/>
    </contour>
    <component base="o" xOffset="295"/>
  </outline>
</glyph>
<glyph name="Fita-cy" format="2">
  <advance width="742"/>
  <unicode hex="0472"/>
  <outline>
    <contour>
      <point x="280" y="289" type="line"/>
      <point x="462" y="289" type="line"/>
      <point x="462" y="411" type="line"/>
      <point x="280" y="411" type="line"/>
    </contour>
    <component base="O"/>
  </outline>
</glyph>
<glyph name="Gheupturn-cy" format="2">
  <advance width="599"/>
  <unicode hex="0490"/>
  <outline>
    <contour>
      <point x="552" y="840" type="curve" smooth="yes"/>
      <point x="356" y="840" type="line" smooth="yes"/>
      <point x="341" y="840"/>
      <point x="329" y="828"/>
      <point x="329" y="813" type="curve" smooth="yes"/>
      <point x="329" y="700" type="line"/>
      <point x="82" y="700" type="line" smooth="yes"/>
      <point x="67" y="700"/>
      <point x="55" y="688"/>
      <point x="55" y="673" type="curve" smooth="yes"/>
      <point x="55" y="27" type="line" smooth="yes"/>
      <point x="55" y="12"/>
      <point x="67" y="0"/>
      <point x="82" y="0" type="curve" smooth="yes"/>
      <point x="278" y="0" type="line" smooth="yes"/>
      <point x="293" y="0"/>
      <point x="305" y="12"/>
      <point x="305" y="27" type="curve" smooth="yes"/>
      <point x="305" y="495" type="line"/>
      <point x="552" y="495" type="line" smooth="yes"/>
      <point x="567" y="495"/>
      <point x="579" y="507"/>
      <point x="579" y="522" type="curve" smooth="yes"/>
      <point x="579" y="813" type="line" smooth="yes"/>
      <point x="579" y="828"/>
      <point x="567" y="840"/>
    </contour>
  </outline>
</glyph>
<glyph name="ghemiddlehook-cy" format="2">
  <advance width="625"/>
  <unicode hex="0495"/>
  <outline>
    <contour>
      <point x="72" y="0" type="curve" smooth="yes"/>
      <point x="231" y="0" type="line" smooth="yes"/>
      <point x="246" y="0"/>
      <point x="258" y="12"/>
      <point x="258" y="27" type="curve" smooth="yes"/>
      <point x="258" y="345" type="line"/>
      <point x="437" y="345" type="line" smooth="yes"/>
      <point x="452" y="345"/>
      <point x="464" y="357"/>
      <point x="464" y="372" type="curve" smooth="yes"/>
      <point x="464" y="493" type="line" smooth="yes"/>
      <point x="464" y="508"/>
      <point x="452" y="520"/>
      <point x="437" y="520" type="curve" smooth="yes"/>
      <point x="72" y="520" type="line" smooth="yes"/>
      <point x="57" y="520"/>
      <point x="45" y="508"/>
      <point x="45" y="493" type="curve" smooth="yes"/>
      <point x="45" y="27" type="line" smooth="yes"/>
      <point x="45" y="12"/>
      <point x="57" y="0"/>
    </contour>
    <contour>
      <point x="258" y="256" type="curve"/>
      <point x="258" y="80" type="line"/>
      <point x="258" y="101"/>
      <point x="284" y="111"/>
      <point x="320" y="111" type="curve" smooth="yes"/>
      <point x="362" y="111"/>
      <point x="380" y="92"/>
      <point x="380" y="56" type="curve" smooth="yes"/>
      <point x="380" y="35" type="line" smooth="yes"/>
      <point x="380" y="2"/>
      <point x="366" y="-15"/>
      <point x="337" y="-15" type="curve" smooth="yes"/>
      <point x="316" y="-15" type="line" smooth="yes"/>
      <point x="301" y="-15"/>
      <point x="289" y="-27"/>
      <point x="289" y="-42" type="curve" smooth="yes"/>
      <point x="289" y="-163" type="line" smooth="yes"/>
      <point x="289" y="-178"/>
      <point x="301" y="-190"/>
      <point x="316" y="-190" type="curve" smooth="yes"/>
      <point x="347" y="-190" type="line" smooth="yes"/>
      <point x="500" y="-190"/>
      <point x="610" y="-114"/>
      <point x="610" y="29" type="curve" smooth="yes"/>
      <point x="610" y="63" type="line" smooth="yes"/>
      <point x="610" y="196"/>
      <point x="536" y="290"/>
      <point x="411" y="290" type="curve" smooth="yes"/>
      <point x="349" y="290"/>
      <point x="298" y="278"/>
    </contour>
  </outline>
</glyph>
<glyph name="Kaverticalstroke-cy" format="2">
  <advance width="833"/>
  <unicode hex="049C"/>
  <outline>
    <contour>
      <point x="82" y="0" type="curve" smooth="yes"/>
      <point x="278" y="0" type="line" smooth="yes"/>
      <point x="293" y="0"/>
      <point x="305" y="12"/>
      <point x="305" y="27" type="curve" smooth="yes"/>
      <point x="305" y="273" type="line"/>
      <point x="327" y="273" type="line"/>
      <point x="327" y="202" type="line" smooth="yes"/>
      <point x="327" y="187"/>
      <point x="339" y="175"/>
      <point x="354" y="175" type="curve" smooth="yes"/>
      <point x="366" y="175" type="line" smooth="yes"/>
      <point x="381" y="175"/>
      <point x="393" y="187"/>
      <point x="393" y="202" type="curve" smooth="yes"/>
      <point x="393" y="271" type="line"/>
      <point x="393" y="272" type="line"/>
      <point x="532" y="23" type="line" smooth="yes"/>
      <point x="535" y="17"/>
      <point x="546" y="0"/>
      <point x="573" y="0" type="curve" smooth="yes"/>
      <point x="801" y="0" type="line" smooth="yes"/>
      <point x="813" y="0"/>
      <point x="823" y="10"/>
      <point x="823" y="22" type="curve" smooth="yes"/>
      <point x="823" y="25"/>
      <point x="822" y="30"/>
      <point x="820" y="33" type="curve" smooth="yes"/>
      <point x="623" y="365" type="line"/>
      <point x="803" y="667" type="line" smooth="yes"/>
      <point x="805" y="670"/>
      <point x="806" y="674"/>
      <point x="806" y="678" type="curve" smooth="yes"/>
      <point x="806" y="690"/>
      <point x="796" y="700"/>
      <point x="784" y="700" type="curve" smooth="yes"/>
      <point x="563" y="700" type="line" smooth="yes"/>
      <point x="541" y="700"/>
      <point x="529" y="689"/>
      <point x="523" y="678" type="curve" smooth="yes"/>
      <point x="394" y="450" type="line"/>
      <point x="393" y="448" type="line"/>
      <point x="393" y="497" type="line" smooth="yes"/>
      <point x="393" y="512"/>
      <point x="381" y="524"/>
      <point x="366" y="524" type="curve" smooth="yes"/>
      <point x="354" y="524" type="line" smooth="yes"/>
      <point x="339" y="524"/>
      <point x="327" y="512"/>
      <point x="327" y="497" type="curve" smooth="yes"/>
      <point x="327" y="433" type="line"/>
      <point x="305" y="433" type="line"/>
      <point x="305" y="673" type="line" smooth="yes"/>
      <point x="305" y="688"/>
      <point x="293" y="700"/>
      <point x="278" y="700" type="curve" smooth="yes"/>
      <point x="82" y="700" type="line" smooth="yes"/>
      <point x="67" y="700"/>
      <point x="55" y="688"/>
      <point x="55" y="673" type="curve" smooth="yes"/>
      <point x="55" y="27" type="line" smooth="yes"/>
      <point x="55" y="11"/>
      <point x="67" y="0"/>
    </contour>
  </outline>
</glyph>
<glyph name="cheverticalstroke-cy" format="2">
  <advance width="712"/>
  <unicode hex="04B9"/>
  <outline>
    <contour>
      <point x="438" y="0" type="curve" smooth="yes"/>
      <point x="633" y="0" type="line" smooth="yes"/>
      <point x="648" y="0"/>
      <point x="660" y="12"/>
      <point x="660" y="27" type="curve" smooth="yes"/>
      <point x="660" y="493" type="line" smooth="yes"/>
      <point x="660" y="508"/>
      <point x="648" y="520"/>
      <point x="633" y="520" type="curve" smooth="yes"/>
      <point x="438" y="520" type="line" smooth="yes"/>
      <point x="423" y="520"/>
      <point x="411" y="508"/>
      <point x="411" y="493" type="curve" smooth="yes"/>
      <point x="411" y="337" type="line" smooth="yes"/>
      <point x="411" y="313"/>
      <point x="376" y="299"/>
      <point x="329" y="299" type="curve" smooth="yes"/>
      <point x="287" y="299"/>
      <point x="265" y="316"/>
      <point x="265" y="354" type="curve" smooth="yes"/>
      <point x="265" y="493" type="line" smooth="yes"/>
      <point x="265" y="508"/>
      <point x="253" y="520"/>
      <point x="238" y="520" type="curve" smooth="yes"/>
      <point x="52" y="520" type="line" smooth="yes"/>
      <point x="37" y="520"/>
      <point x="25" y="508"/>
      <point x="25" y="493" type="curve" smooth="yes"/>
      <point x="25" y="354" type="line" smooth="yes"/>
      <point x="25" y="213"/>
      <point x="114" y="140"/>
      <point x="249" y="140" type="curve" smooth="yes"/>
      <point x="318" y="140"/>
      <point x="375" y="151"/>
      <point x="411" y="168" type="curve" smooth="yes"/>
      <point x="411" y="27" type="line" smooth="yes"/>
      <point x="411" y="12"/>
      <point x="423" y="0"/>
    </contour>
    <contour>
      <point x="314" y="347" type="curve" smooth="yes"/>
      <point x="314" y="112" type="line" smooth="yes"/>
      <point x="314" y="97"/>
      <point x="326" y="85"/>
      <point x="341" y="85" type="curve" smooth="yes"/>
      <point x="353" y="85" type="line" smooth="yes"/>
      <point x="368" y="85"/>
      <point x="380" y="97"/>
      <point x="380" y="112" type="curve" smooth="yes"/>
      <point x="380" y="347" type="line" smooth="yes"/>
      <point x="380" y="362"/>
      <point x="368" y="374"/>
      <point x="353" y="374" type="curve" smooth="yes"/>
      <point x="341" y="374" type="line" smooth="yes"/>
      <point x="326" y="374"/>
      <point x="314" y="362"/>
    </contour>
  </outline>
</glyph>
<glyph name="Chekhakassian-cy" format="2">
  <advance width="737"/>
  <unicode hex="04CB"/>
  <outline>
    <contour>
      <point x="574" y="-140" type="line" smooth="yes"/>
      <point x="589" y="-140"/>
      <point x="601" y="-128"/>
      <point x="601" y="-113" type="curve" smooth="yes"/>
      <point x="601" y="0" type="line"/>
      <point x="623" y="0" type="line"/>
      <point x="673" y="120" type="line"/>
      <point x="378" y="120" type="line" smooth="yes"/>
      <point x="363" y="120"/>
      <point x="351" y="108"/>
      <point x="351" y="93" type="curve" smooth="yes"/>
      <point x="351" y="-113" type="line" smooth="yes"/>
      <point x="351" y="-128"/>
      <point x="363" y="-140"/>
      <point x="378" y="-140" type="curve" smooth="yes"/>
    </contour>
    <component base="Che-cy"/>
  </outline>
</glyph>
<glyph name="schwa-cy" format="2">
  <advance width="623"/>
  <unicode hex="04D9"/>
  <outline>
    <contour>
      <point x="309" y="530" type="curve" smooth="yes"/>
      <point x="124" y="530"/>
      <point x="41" y="426"/>
      <point x="38" y="375" type="curve" smooth="yes"/>
      <point x="37" y="362"/>
      <point x="47" y="353"/>
      <point x="60" y="353" type="curve" smooth="yes"/>
      <point x="249" y="353" type="line" smooth="yes"/>
      <point x="265" y="353"/>
      <point x="270" y="355"/>
      <point x="282" y="367" type="curve" smooth="yes"/>
      <point x="293" y="378"/>
      <point x="299" y="385"/>
      <point x="311" y="385" type="curve" smooth="yes"/>
      <point x="340" y="385"/>
      <point x="350" y="364"/>
      <point x="350" y="324" type="curve" smooth="yes"/>
      <point x="350" y="322"/>
      <point x="350" y="321"/>
      <point x="350" y="319" type="curve"/>
      <point x="52" y="319" type="line" smooth="yes"/>
      <point x="37" y="319"/>
      <point x="25" y="307"/>
      <point x="25" y="292" type="curve" smooth="yes"/>
      <point x="25" y="262" type="line" smooth="yes"/>
      <point x="25" y="115"/>
      <point x="114" y="-10"/>
      <point x="310" y="-10" type="curve" smooth="yes"/>
      <point x="481" y="-10"/>
      <point x="592" y="82"/>
      <point x="595" y="254" type="curve" smooth="yes"/>
      <point x="595" y="256"/>
      <point x="595" y="259"/>
      <point x="595" y="261" type="curve" smooth="yes"/>
      <point x="595" y="448"/>
      <point x="484" y="530"/>
    </contour>
    <contour>
      <point x="350" y="194" type="line"/>
      <point x="350" y="193" type="line"/>
      <point x="350" y="149"/>
      <point x="336" y="130"/>
      <point x="310" y="130" type="curve" smooth="yes"/>
      <point x="284" y="130"/>
      <point x="270" y="149"/>
      <point x="270" y="193" type="curve"/>
      <point x="270" y="194" type="line"/>
    </contour>
  </outline>
</glyph>
<glyph name="holam-hb" format="2">
  <unicode hex="05B9"/>
  <anchor x="54" y="415" name="_topleft"/>
  <outline>
    <contour>
      <point x="-33" y="533" type="curve" smooth="yes"/>
      <point x="40" y="533" type="line" smooth="yes"/>
      <point x="53" y="533"/>
      <point x="62" y="542"/>
      <point x="62" y="555" type="curve" smooth="yes"/>
      <point x="62" y="618" type="line" smooth="yes"/>
      <point x="62" y="631"/>
      <point x="53" y="640"/>
      <point x="40" y="640" type="curve" smooth="yes"/>
      <point x="-33" y="640" type="line" smooth="yes"/>
      <point x="-46" y="640"/>
      <point x="-55" y="631"/>
      <point x="-55" y="618" type="curve" smooth="yes"/>
      <point x="-55" y="555" type="line" smooth="yes"/>
      <point x="-55" y="542"/>
      <point x="-46" y="533"/>
    </contour>
  </outline>
</glyph>
<glyph name="dalet-hb" format="2">
  <advance width="559"/>
  <unicode hex="05D3"/>
  <guideline x="533"/>
  <anchor x="285" y="0" name="bottom"/>
  <anchor x="31" y="0" name="bottomleft"/>
  <anchor x="133" y="260" name="center"/>
  <anchor x="285" y="520" name="top"/>
  <anchor x="31" y="520" name="topleft"/>
  <outline>
    <contour>
      <point x="252" y="0" type="curve" smooth="yes"/>
      <point x="419" y="0" type="line" smooth="yes"/>
      <point x="432" y="0"/>
      <point x="451" y="9"/>
      <point x="451" y="22" type="curve"/>
      <point x="451" y="272" type="line" smooth="yes"/>
      <point x="451" y="356"/>
      <point x="473" y="423"/>
      <point x="507" y="423" type="curve"/>
      <point x="294" y="423" type="line"/>
      <point x="245" y="423"/>
      <point x="230" y="377"/>
      <point x="230" y="286" type="curve" smooth="yes"/>
      <point x="230" y="22" type="line" smooth="yes"/>
      <point x="230" y="9"/>
      <point x="239" y="0"/>
    </contour>
    <contour>
      <point x="50" y="396" type="curve" smooth="yes"/>
      <point x="509" y="396" type="line" smooth="yes"/>
      <point x="526" y="396"/>
      <point x="536" y="410"/>
      <point x="536" y="423" type="curve" smooth="yes"/>
      <point x="536" y="544" type="line" smooth="yes"/>
      <point x="536" y="559"/>
      <point x="524" y="571"/>
      <point x="509" y="571" type="curve" smooth="yes"/>
      <point x="50" y="571" type="line" smooth="yes"/>
      <point x="35" y="571"/>
      <point x="23" y="559"/>
      <point x="23" y="544" type="curve" smooth="yes"/>
      <point x="23" y="423" type="line" smooth="yes"/>
      <point x="23" y="408"/>
      <point x="35" y="396"/>
    </contour>
  </outline>
</glyph>
<glyph name="he-hb" format="2">
  <advance width="668"/>
  <unicode hex="05D4"/>
  <guideline y="321"/>
  <guideline x="50"/>
  <guideline x="333"/>
  <anchor x="334" y="0" name="bottom"/>
  <anchor x="20" y="0" name="bottomleft"/>
  <anchor x="334" y="260" name="center"/>
  <anchor x="334" y="520" name="top"/>
  <anchor x="20" y="520" name="topleft"/>
  <outline>
    <contour>
      <point x="431" y="0" type="curve" smooth="yes"/>
      <point x="600" y="0" type="line" smooth="yes"/>
      <point x="615" y="0"/>
      <point x="627" y="12"/>
      <point x="627" y="27" type="curve" smooth="yes"/>
      <point x="627" y="317" type="line" smooth="yes"/>
      <point x="627" y="501"/>
      <point x="520" y="571"/>
      <point x="335" y="571" type="curve" smooth="yes"/>
      <point x="74" y="571" type="line" smooth="yes"/>
      <point x="59" y="571"/>
      <point x="47" y="559"/>
      <point x="47" y="544" type="curve" smooth="yes"/>
      <point x="47" y="423" type="line" smooth="yes"/>
      <point x="47" y="408"/>
      <point x="59" y="396"/>
      <point x="74" y="396" type="curve" smooth="yes"/>
      <point x="330" y="396" type="line" smooth="yes"/>
      <point x="379" y="396"/>
      <point x="404" y="371"/>
      <point x="404" y="321" type="curve" smooth="yes"/>
      <point x="404" y="26" type="line" smooth="yes"/>
      <point x="404" y="11"/>
      <point x="416" y="0"/>
    </contour>
    <contour>
      <point x="74" y="0" type="curve" smooth="yes"/>
      <point x="243" y="0" type="line" smooth="yes"/>
      <point x="258" y="0"/>
      <point x="270" y="12"/>
      <point x="270" y="27" type="curve"/>
      <point x="270" y="289" type="line" smooth="yes"/>
      <point x="270" y="304"/>
      <point x="258" y="316"/>
      <point x="243" y="316" type="curve" smooth="yes"/>
      <point x="74" y="316" type="line" smooth="yes"/>
      <point x="59" y="316"/>
      <point x="47" y="304"/>
      <point x="47" y="289" type="curve" smooth="yes"/>
      <point x="47" y="27" type="line" smooth="yes"/>
      <point x="47" y="12"/>
      <point x="59" y="0"/>
    </contour>
  </outline>
</glyph>
<glyph name="finalnun-hb" format="2">
  <advance width="317"/>
  <unicode hex="05DF"/>
  <anchor x="159" y="0" name="bottom"/>
  <anchor x="20" y="0" name="bottomleft"/>
  <anchor x="159" y="260" name="center"/>
  <anchor x="159" y="520" name="top"/>
  <anchor x="20" y="520" name="topleft"/>
  <outline>
    <contour>
      <point x="74" y="-124" type="curve" smooth="yes"/>
      <point x="243" y="-124" type="line" smooth="yes"/>
      <point x="258" y="-124"/>
      <point x="270" y="-112"/>
      <point x="270" y="-97" type="curve"/>
      <point x="270" y="544" type="line" smooth="yes"/>
      <point x="270" y="559"/>
      <point x="258" y="571"/>
      <point x="243" y="571" type="curve" smooth="yes"/>
      <point x="74" y="571" type="line" smooth="yes"/>
      <point x="59" y="571"/>
      <point x="47" y="559"/>
      <point x="47" y="544" type="curve" smooth="yes"/>
      <point x="47" y="-97" type="line" smooth="yes"/>
      <point x="47" y="-112"/>
      <point x="59" y="-124"/>
    </contour>
  </outline>
</glyph>
<glyph name="ayin-hb" format="2">
  <advance width="675"/>
  <unicode hex="05E2"/>
  <guideline y="249"/>
  <guideline x="20"/>
  <guideline x="328"/>
  <anchor x="328" y="0" name="bottom"/>
  <anchor x="20" y="0" name="bottomleft"/>
  <anchor x="338" y="260" name="center"/>
  <anchor x="338" y="520" name="top"/>
  <anchor x="20" y="520" name="topleft"/>
  <outline>
    <contour>
      <point x="56" y="-57" type="curve" smooth="yes"/>
      <point x="338" y="-13" type="line" smooth="yes"/>
      <point x="528" y="10"/>
      <point x="634" y="91"/>
      <point x="634" y="235" type="curve" smooth="yes"/>
      <point x="634" y="544" type="line" smooth="yes"/>
      <point x="634" y="559"/>
      <point x="622" y="571"/>
      <point x="607" y="571" type="curve" smooth="yes"/>
      <point x="438" y="571" type="line" smooth="yes"/>
      <point x="423" y="571"/>
      <point x="411" y="560"/>
      <point x="411" y="545" type="curve" smooth="yes"/>
      <point x="411" y="300" type="line" smooth="yes"/>
      <point x="411" y="215"/>
      <point x="391" y="183"/>
      <point x="283" y="163" type="curve" smooth="yes"/>
      <point x="56" y="121" type="line" smooth="yes"/>
      <point x="42" y="118"/>
      <point x="29" y="109"/>
      <point x="29" y="94" type="curve" smooth="yes"/>
      <point x="29" y="-30" type="line" smooth="yes"/>
      <point x="29" y="-45"/>
      <point x="41" y="-59"/>
    </contour>
    <contour>
      <point x="184" y="24" type="line"/>
      <point x="381" y="47" type="line"/>
      <point x="268" y="556" type="line" smooth="yes"/>
      <point x="266" y="564"/>
      <point x="258" y="571"/>
      <point x="245" y="571" type="curve" smooth="yes"/>
      <point x="58" y="571" type="line" smooth="yes"/>
      <point x="47" y="571"/>
      <point x="38" y="562"/>
      <point x="38" y="551" type="curve" smooth="yes"/>
      <point x="38" y="546"/>
      <point x="40" y="541"/>
      <point x="43" y="531" type="curve" smooth="yes"/>
    </contour>
  </outline>
</glyph>
<glyph name="tsadi-hb" format="2">
  <advance width="629"/>
  <unicode hex="05E6"/>
  <anchor x="305" y="0" name="bottom"/>
  <anchor x="20" y="0" name="bottomleft"/>
  <anchor x="123" y="235" name="center"/>
  <anchor x="305" y="520" name="top"/>
  <anchor x="20" y="520" name="topleft"/>
  <outline>
    <contour>
      <point x="88" y="0" type="curve" smooth="yes"/>
      <point x="524" y="0" type="line" smooth="yes"/>
      <point x="539" y="0"/>
      <point x="551" y="12"/>
      <point x="551" y="27" type="curve" smooth="yes"/>
      <point x="551" y="141" type="line" smooth="yes"/>
      <point x="551" y="159"/>
      <point x="542" y="168"/>
      <point x="536" y="176" type="curve" smooth="yes"/>
      <point x="252" y="552" type="line" smooth="yes"/>
      <point x="248" y="557"/>
      <point x="239" y="571"/>
      <point x="216" y="571" type="curve" smooth="yes"/>
      <point x="39" y="571" type="line" smooth="yes"/>
      <point x="27" y="571"/>
      <point x="17" y="563"/>
      <point x="17" y="551" type="curve" smooth="yes"/>
      <point x="17" y="545"/>
      <point x="20" y="540"/>
      <point x="22" y="537" type="curve" smooth="yes"/>
      <point x="297" y="180" type="line"/>
      <point x="88" y="180" type="line" smooth="yes"/>
      <point x="73" y="180"/>
      <point x="61" y="168"/>
      <point x="61" y="153" type="curve" smooth="yes"/>
      <point x="61" y="27" type="line" smooth="yes"/>
      <point x="61" y="12"/>
      <point x="73" y="0"/>
    </contour>
    <contour>
      <point x="463" y="243" type="line"/>
      <point x="546" y="299"/>
      <point x="589" y="381"/>
      <point x="589" y="463" type="curve" smooth="yes"/>
      <point x="589" y="542" type="line" smooth="yes"/>
      <point x="589" y="557"/>
      <point x="577" y="571"/>
      <point x="562" y="571" type="curve" smooth="yes"/>
      <point x="413" y="571" type="line" smooth="yes"/>
      <point x="398" y="571"/>
      <point x="386" y="559"/>
      <point x="386" y="542" type="curve" smooth="yes"/>
      <point x="386" y="506" type="line" smooth="yes"/>
      <point x="386" y="463"/>
      <point x="380" y="422"/>
      <point x="352" y="390" type="curve"/>
    </contour>
  </outline>
</glyph>
<glyph name="tav-hb" format="2">
  <advance width="751"/>
  <unicode hex="05EA"/>
  <guideline y="175"/>
  <guideline y="321"/>
  <guideline x="6"/>
  <anchor x="416" y="0" name="bottom"/>
  <anchor x="20" y="0" name="bottomleft"/>
  <anchor x="413" y="260" name="center"/>
  <anchor x="376" y="520" name="top"/>
  <anchor x="20" y="520" name="topleft"/>
  <outline>
    <contour>
      <point x="96" y="396" type="curve" smooth="yes"/>
      <point x="413" y="396" type="line" smooth="yes"/>
      <point x="462" y="396"/>
      <point x="487" y="371"/>
      <point x="487" y="321" type="curve" smooth="yes"/>
      <point x="487" y="26" type="line" smooth="yes"/>
      <point x="487" y="11"/>
      <point x="499" y="0"/>
      <point x="514" y="0" type="curve" smooth="yes"/>
      <point x="683" y="0" type="line" smooth="yes"/>
      <point x="698" y="0"/>
      <point x="710" y="12"/>
      <point x="710" y="27" type="curve" smooth="yes"/>
      <point x="710" y="326" type="line" smooth="yes"/>
      <point x="710" y="505"/>
      <point x="604" y="571"/>
      <point x="419" y="571" type="curve" smooth="yes"/>
      <point x="96" y="571" type="line" smooth="yes"/>
      <point x="81" y="571"/>
      <point x="69" y="559"/>
      <point x="69" y="544" type="curve" smooth="yes"/>
      <point x="69" y="423" type="line" smooth="yes"/>
      <point x="69" y="408"/>
      <point x="81" y="396"/>
    </contour>
    <contour>
      <point x="250" y="482" type="line"/>
      <point x="200" y="482"/>
      <point x="183" y="462"/>
      <point x="174" y="441" type="curve" smooth="yes"/>
      <point x="152" y="388"/>
      <point x="146" y="333"/>
      <point x="146" y="284" type="curve"/>
      <point x="146" y="165" type="line"/>
      <point x="62" y="165" type="line" smooth="yes"/>
      <point x="47" y="165"/>
      <point x="35" y="153"/>
      <point x="35" y="138" type="curve" smooth="yes"/>
      <point x="35" y="27" type="line" smooth="yes"/>
      <point x="35" y="12"/>
      <point x="47" y="0"/>
      <point x="62" y="0" type="curve" smooth="yes"/>
      <point x="324" y="0" type="line" smooth="yes"/>
      <point x="339" y="0"/>
      <point x="351" y="12"/>
      <point x="351" y="27" type="curve"/>
      <point x="339" y="284" type="line"/>
      <point x="339" y="350"/>
      <point x="345" y="394"/>
      <point x="368" y="441" type="curve" smooth="yes"/>
      <point x="377" y="459"/>
      <point x="362" y="482"/>
      <point x="311" y="482" type="curve"/>
    </contour>
  </outline>
</glyph>
<glyph name="nineinferior" format="2">
  <advance width="362"/>
  <unicode hex="2089"/>
  <guideline y="-170"/>
  <guideline y="180"/>
  <outline>
    <contour>
      <point x="95" y="-171" type="curve" smooth="yes"/>
      <point x="180" y="-171" type="line" smooth="yes"/>
      <point x="191" y="-171"/>
      <point x="202" y="-164"/>
      <point x="209" y="-156" type="curve" smooth="yes"/>
      <point x="292" y="-49" type="line" smooth="yes"/>
      <point x="305" y="-32"/>
      <point x="340" y="15"/>
      <point x="340" y="58" type="curve" smooth="yes"/>
      <point x="340" y="140"/>
      <point x="269" y="184"/>
      <point x="175" y="184" type="curve" smooth="yes"/>
      <point x="81" y="184"/>
      <point x="15" y="131"/>
      <point x="15" y="55" type="curve" smooth="yes"/>
      <point x="15" y="-25"/>
      <point x="89" y="-57"/>
      <point x="135" y="-64" type="curve"/>
      <point x="84" y="-131" type="line" smooth="yes"/>
      <point x="78" y="-139"/>
      <point x="75" y="-145"/>
      <point x="75" y="-151" type="curve" smooth="yes"/>
      <point x="75" y="-162"/>
      <point x="84" y="-171"/>
    </contour>
    <contour>
      <point x="175" y="27" type="curve" smooth="yes"/>
      <point x="157" y="27"/>
      <point x="143" y="37"/>
      <point x="143" y="56" type="curve" smooth="yes"/>
      <point x="143" y="75"/>
      <point x="158" y="86"/>
      <point x="175" y="86" type="curve" smooth="yes"/>
      <point x="192" y="86"/>
      <point x="206" y="75"/>
      <point x="206" y="56" type="curve" smooth="yes"/>
      <point x="206" y="37"/>
      <point x="192" y="27"/>
    </contour>
  </outline>
</glyph>
<glyph name="hryvnia" format="2">
  <advance width="724"/>
  <unicode hex="20B4"/>
  <outline>
    <contour>
      <point x="350" y="-10" type="curve" smooth="yes"/>
      <point x="571" y="-10"/>
      <point x="676" y="92"/>
      <point x="679" y="203" type="curve" smooth="yes"/>
      <point x="679" y="215"/>
      <point x="669" y="225"/>
      <point x="657" y="225" type="curve" smooth="yes"/>
      <point x="467" y="225" type="line" smooth="yes"/>
      <point x="446" y="225"/>
      <point x="438" y="219"/>
      <point x="424" y="208" type="curve" smooth="yes"/>
      <point x="405" y="193"/>
      <point x="383" y="185"/>
      <point x="340" y="185" type="curve" smooth="yes"/>
      <point x="309" y="185"/>
      <point x="285" y="196"/>
      <point x="285" y="223" type="curve" smooth="yes"/>
      <point x="285" y="260"/>
      <point x="316" y="272"/>
      <point x="449" y="320" type="curve" smooth="yes"/>
      <point x="574" y="362"/>
      <point x="642" y="388"/>
      <point x="642" y="500" type="curve" smooth="yes"/>
      <point x="642" y="620"/>
      <point x="545" y="710"/>
      <point x="387" y="710" type="curve" smooth="yes"/>
      <point x="174" y="710"/>
      <point x="53" y="590"/>
      <point x="53" y="503" type="curve" smooth="yes"/>
      <point x="53" y="491"/>
      <point x="63" y="481"/>
      <point x="74" y="481" type="curve" smooth="yes"/>
      <point x="274" y="481" type="line" smooth="yes"/>
      <point x="293" y="481"/>
      <point x="302" y="486"/>
      <point x="314" y="497" type="curve" smooth="yes"/>
      <point x="330" y="510"/>
      <point x="348" y="518"/>
      <point x="387" y="518" type="curve" smooth="yes"/>
      <point x="414" y="518"/>
      <point x="425" y="504"/>
      <point x="425" y="487" type="curve" smooth="yes"/>
      <point x="425" y="455"/>
      <point x="398" y="433"/>
      <point x="271" y="390" type="curve" smooth="yes"/>
      <point x="133" y="347"/>
      <point x="68" y="309"/>
      <point x="68" y="206" type="curve" smooth="yes"/>
      <point x="68" y="80"/>
      <point x="189" y="-10"/>
    </contour>
    <contour>
      <point x="66" y="231" type="curve" smooth="yes"/>
      <point x="651" y="231" type="line" smooth="yes"/>
      <point x="666" y="231"/>
      <point x="678" y="243"/>
      <point x="678" y="258" type="curve" smooth="yes"/>
      <point x="678" y="316" type="line" smooth="yes"/>
      <point x="678" y="331"/>
      <point x="666" y="343"/>
      <point x="651" y="343" type="curve" smooth="yes"/>
      <point x="66" y="343" type="line" smooth="yes"/>
      <point x="51" y="343"/>
      <point x="39" y="331"/>
      <point x="39" y="316" type="curve" smooth="yes"/>
      <point x="39" y="258" type="line" smooth="yes"/>
      <point x="39" y="243"/>
      <point x="51" y="231"/>
    </contour>
    <contour>
      <point x="66" y="341" type="curve" smooth="yes"/>
      <point x="651" y="341" type="line" smooth="yes"/>
      <point x="666" y="341"/>
      <point x="678" y="353"/>
      <point x="678" y="368" type="curve" smooth="yes"/>
      <point x="678" y="426" type="line" smooth="yes"/>
      <point x="678" y="441"/>
      <point x="666" y="453"/>
      <point x="651" y="453" type="curve" smooth="yes"/>
      <point x="66" y="453" type="line" smooth="yes"/>
      <point x="51" y="453"/>
      <point x="39" y="441"/>
      <point x="39" y="426" type="curve" smooth="yes"/>
      <point x="39" y="368" type="line" smooth="yes"/>
      <point x="39" y="353"/>
      <point x="51" y="341"/>
    </contour>
  </outline>
</glyph>
<glyph name="fi" format="2">
  <advance width="785"/>
  <unicode hex="FB01"/>
  <guideline x="740"/>
  <guideline x="15"/>
  <outline>
    <contour>
      <point x="138" y="0" type="curve" smooth="yes"/>
      <point x="313" y="0" type="line" smooth="yes"/>
      <point x="328" y="0"/>
      <point x="340" y="12"/>
      <point x="340" y="27" type="curve" smooth="yes"/>
      <point x="340" y="345" type="line"/>
      <point x="511" y="345" type="line"/>
      <point x="511" y="27" type="line" smooth="yes"/>
      <point x="511" y="12"/>
      <point x="523" y="0"/>
      <point x="538" y="0" type="curve" smooth="yes"/>
      <point x="713" y="0" type="line" smooth="yes"/>
      <point x="728" y="0"/>
      <point x="740" y="12"/>
      <point x="740" y="27" type="curve" smooth="yes"/>
      <point x="740" y="493" type="line" smooth="yes"/>
      <point x="740" y="508"/>
      <point x="728" y="520"/>
      <point x="713" y="520" type="curve" smooth="yes"/>
      <point x="340" y="520" type="line"/>
      <point x="340" y="532" type="line" smooth="yes"/>
      <point x="340" y="553"/>
      <point x="353" y="565"/>
      <point x="383" y="565" type="curve" smooth="yes"/>
      <point x="713" y="565" type="line" smooth="yes"/>
      <point x="728" y="565"/>
      <point x="740" y="577"/>
      <point x="740" y="592" type="curve" smooth="yes"/>
      <point x="740" y="713" type="line" smooth="yes"/>
      <point x="740" y="728"/>
      <point x="728" y="740"/>
      <point x="713" y="740" type="curve" smooth="yes"/>
      <point x="371" y="740" type="line" smooth="yes"/>
      <point x="226" y="740"/>
      <point x="111" y="701"/>
      <point x="111" y="537" type="curve" smooth="yes"/>
      <point x="111" y="520" type="line"/>
      <point x="42" y="520" type="line" smooth="yes"/>
      <point x="27" y="520"/>
      <point x="15" y="508"/>
      <point x="15" y="493" type="curve" smooth="yes"/>
      <point x="15" y="372" type="line" smooth="yes"/>
      <point x="15" y="357"/>
      <point x="27" y="345"/>
      <point x="42" y="345" type="curve" smooth="yes"/>
      <point x="111" y="345" type="line"/>
      <point x="111" y="27" type="line" smooth="yes"/>
      <point x="111" y="12"/>
      <point x="123" y="0"/>
    </contour>
  </outline>
</glyph>
<glyph name="fl" format="2">
  <advance width="797"/>
  <unicode hex="FB02"/>
  <guideline y="740"/>
  <guideline x="523"/>
  <guideline x="752"/>
  <guideline x="15"/>
  <outline>
    <contour>
      <point x="138" y="0" type="curve" smooth="yes"/>
      <point x="313" y="0" type="line" smooth="yes"/>
      <point x="328" y="0"/>
      <point x="340" y="12"/>
      <point x="340" y="27" type="curve" smooth="yes"/>
      <point x="340" y="345" type="line"/>
      <point x="523" y="345" type="line"/>
      <point x="523" y="27" type="line" smooth="yes"/>
      <point x="523" y="12"/>
      <point x="535" y="0"/>
      <point x="550" y="0" type="curve" smooth="yes"/>
      <point x="725" y="0" type="line" smooth="yes"/>
      <point x="740" y="0"/>
      <point x="752" y="12"/>
      <point x="752" y="27" type="curve" smooth="yes"/>
      <point x="752" y="713" type="line" smooth="yes"/>
      <point x="752" y="728"/>
      <point x="740" y="740"/>
      <point x="725" y="740" type="curve" smooth="yes"/>
      <point x="550" y="740" type="line" smooth="yes"/>
      <point x="535" y="740"/>
      <point x="523" y="728"/>
      <point x="523" y="713" type="curve" smooth="yes"/>
      <point x="523" y="520" type="line"/>
      <point x="340" y="520" type="line"/>
      <point x="340" y="532" type="line" smooth="yes"/>
      <point x="340" y="553"/>
      <point x="353" y="565"/>
      <point x="383" y="565" type="curve" smooth="yes"/>
      <point x="444" y="565" type="line" smooth="yes"/>
      <point x="459" y="565"/>
      <point x="471" y="577"/>
      <point x="471" y="592" type="curve" smooth="yes"/>
      <point x="471" y="713" type="line" smooth="yes"/>
      <point x="471" y="728"/>
      <point x="459" y="740"/>
      <point x="444" y="740" type="curve" smooth="yes"/>
      <point x="371" y="740" type="line" smooth="yes"/>
      <point x="226" y="740"/>
      <point x="111" y="701"/>
      <point x="111" y="537" type="curve" smooth="yes"/>
      <point x="111" y="520" type="line"/>
      <point x="42" y="520" type="line" smooth="yes"/>
      <point x="27" y="520"/>
      <point x="15" y="508"/>
      <point x="15" y="493" type="curve" smooth="yes"/>
      <point x="15" y="372" type="line" smooth="yes"/>
      <point x="15" y="357"/>
      <point x="27" y="345"/>
      <point x="42" y="345" type="curve" smooth="yes"/>
      <point x="111" y="345" type="line"/>
      <point x="111" y="27" type="line" smooth="yes"/>
      <point x="111" y="12"/>
      <point x="123" y="0"/>
    </contour>
  </outline>
</glyph>
<glyph name="dieresiscomb.case" format="2">
  <guideline y="750"/>
  <guideline y="920"/>
  <anchor x="270" y="700" name="_top"/>
  <anchor x="270" y="920" name="top"/>
  <outline>
    <contour>
      <point x="342" y="750" type="curve" smooth="yes"/>
      <point x="466" y="750" type="line" smooth="yes"/>
      <point x="479" y="750"/>
      <point x="489" y="760"/>
      <point x="489" y="773" type="curve" smooth="yes"/>
      <point x="489" y="897" type="line" smooth="yes"/>
      <point x="489" y="910"/>
      <point x="479" y="920"/>
      <point x="466" y="920" type="curve" smooth="yes"/>
      <point x="342" y="920" type="line" smooth="yes"/>
      <point x="329" y="920"/>
      <point x="319" y="910"/>
      <point x="319" y="897" type="curve" smooth="yes"/>
      <point x="319" y="773" type="line" smooth="yes"/>
      <point x="319" y="760"/>
      <point x="329" y="750"/>
    </contour>
    <contour>
      <point x="73" y="750" type="curve" smooth="yes"/>
      <point x="197" y="750" type="line" smooth="yes"/>
      <point x="210" y="750"/>
      <point x="220" y="760"/>
      <point x="220" y="773" type="curve" smooth="yes"/>
      <point x="220" y="897" type="line" smooth="yes"/>
      <point x="220" y="910"/>
      <point x="210" y="920"/>
      <point x="197" y="920" type="curve" smooth="yes"/>
      <point x="73" y="920" type="line" smooth="yes"/>
      <point x="60" y="920"/>
      <point x="50" y="910"/>
      <point x="50" y="897" type="curve" smooth="yes"/>
      <point x="50" y="773" type="line" smooth="yes"/>
      <point x="50" y="760"/>
      <point x="60" y="750"/>
    </contour>
  </outline>
</glyph>
<glyph name="nine.otlf" format="2">
  <advance width="700"/>
  <guideline y="450"/>
  <guideline x="25"/>
  <guideline x="45"/>
  <guideline x="349"/>
  <guideline x="655"/>
  <outline>
    <contour>
      <point x="167" y="0" type="curve" smooth="yes"/>
      <point x="368" y="0" type="line" smooth="yes"/>
      <point x="390" y="0"/>
      <point x="402" y="13"/>
      <point x="407" y="20" type="curve" smooth="yes"/>
      <point x="539" y="196" type="line"/>
      <point x="602" y="285"/>
      <point x="671" y="360"/>
      <point x="671" y="459" type="curve" smooth="yes"/>
      <point x="671" y="608"/>
      <point x="554" y="710"/>
      <point x="346" y="710" type="curve" smooth="yes"/>
      <point x="138" y="710"/>
      <point x="30" y="585"/>
      <point x="30" y="449" type="curve" smooth="yes"/>
      <point x="30" y="289"/>
      <point x="183" y="218"/>
      <point x="280" y="210" type="curve"/>
      <point x="279" y="208"/>
      <point x="277" y="207"/>
      <point x="276" y="205" type="curve"/>
      <point x="149" y="35" type="line" smooth="yes"/>
      <point x="147" y="32"/>
      <point x="145" y="28"/>
      <point x="145" y="22" type="curve" smooth="yes"/>
      <point x="145" y="10"/>
      <point x="155" y="0"/>
    </contour>
    <contour>
      <point x="349" y="385" type="curve" smooth="yes"/>
      <point x="310" y="385"/>
      <point x="285" y="408"/>
      <point x="285" y="450" type="curve" smooth="yes"/>
      <point x="285" y="492"/>
      <point x="311" y="515"/>
      <point x="349" y="515" type="curve" smooth="yes"/>
      <point x="387" y="515"/>
      <point x="413" y="492"/>
      <point x="413" y="450" type="curve" smooth="yes"/>
      <point x="413" y="408"/>
      <point x="388" y="385"/>
    </contour>
  </outline>
</glyph>
<glyph name="verticalbar-cy" format="2">
  <advance width="266"/>
  <anchor x="133" y="268" name="_center"/>
  <outline>
    <contour>
      <point x="100" y="375" type="curve" smooth="yes"/>
      <point x="100" y="160" type="line" smooth="yes"/>
      <point x="100" y="145"/>
      <point x="112" y="133"/>
      <point x="127" y="133" type="curve" smooth="yes"/>
      <point x="139" y="133" type="line" smooth="yes"/>
      <point x="154" y="133"/>
      <point x="166" y="145"/>
      <point x="166" y="160" type="curve" smooth="yes"/>
      <point x="166" y="375" type="line" smooth="yes"/>
      <point x="166" y="390"/>
      <point x="154" y="402"/>
      <point x="139" y="402" type="curve" smooth="yes"/>
      <point x="127" y="402" type="line" smooth="yes"/>
      <point x="112" y="402"/>
      <point x="100" y="390"/>
    </contour>
  </outline>
</glyph>
